<?xml version="1.0" encoding="utf-8"?>
<!DOCTYPE svg PUBLIC "-//W3C//DTD SVG 1.0//EN" "http://www.w3.org/TR/2001/REC-SVG-20010904/DTD/svg10.dtd">
<svg version="1.0" xmlns="http://www.w3.org/2000/svg" width="1233px" height="1233px" viewBox="0 0 1233 1233" preserveAspectRatio="xMidYMid meet">
 <g fill="#000000">
  <path d="M706 983.9 c15.9 -5.1 39.7 -15.2 47.1 -20 3.2 -2.1 11.2 -6.7 17.8 -10.4 6.6 -3.6 12.3 -7 12.6 -7.5 1.7 -2.8 -3.3 -1 -19.2 6.8 -15.9 7.8 -38 16.9 -38.9 15.9 -0.2 -0.2 3.3 -1.9 7.9 -3.7 11.4 -4.7 30.3 -14.1 42.2 -21.2 11.6 -6.8 42.2 -28.8 44.7 -32 1.9 -2.6 1.5 -4 -1 -3.1 -0.9 0.3 4 -5.2 10.9 -12.3 13.3 -13.6 22.3 -23.8 33 -36.9 12.1 -15 13.2 -16.6 12.2 -17.6 -0.6 -0.6 -3.9 2.7 -9.4 9.3 -18 22.2 -40.8 43.2 -66.9 61.9 -13.5 9.6 -14.1 9.6 -2.6 -0.3 1.6 -1.4 2.5 -2.7 2 -3 -0.8 -0.5 -13 6.7 -38.9 23 -10.1 6.4 -13.5 8.4 -13.5 7.9 0 -0.2 1.9 -1.7 4.1 -3.2 2.6 -1.7 3.8 -3 3.2 -3.6 -0.6 -0.6 -6.3 1.6 -15.4 6.1 -14 6.8 -34.7 15.5 -35.4 14.8 -0.2 -0.2 1.6 -1.4 4 -2.7 2.5 -1.3 4.3 -2.7 4 -3.1 -0.2 -0.3 4.3 -2.8 10.1 -5.5 12.1 -5.5 12.7 -8 0.9 -3.3 -11.3 4.4 -24.3 8.2 -44 12.8 -18 4.3 -24.9 5 -9.9 1 30.2 -7.9 63.2 -23.1 96.4 -44.4 20.5 -13.1 26.3 -17.7 24.4 -19.6 -0.6 -0.6 -3.8 0.9 -8.4 3.9 -5.4 3.5 -7.8 4.7 -8.7 3.9 -1.5 -1.2 -2.9 -0.5 -17.5 8.6 -6 3.6 -10.7 6.3 -10.7 5.8 0.4 -2.1 -0.5 -2 -5.2 0.3 -6 3.1 -20.1 8.6 -20.6 8.1 -0.2 -0.2 1.5 -1.1 3.9 -2.1 9.3 -3.6 23.1 -12.4 41.3 -26.1 21.8 -16.3 34.7 -27.2 33.9 -28.5 -0.3 -0.5 -1.6 -0.2 -2.9 0.8 -1.3 1 -7.6 5.9 -14.2 10.9 -21.1 16.2 -47.2 31.5 -51.1 29.9 -2 -0.8 -2.1 -0.7 6.6 -5.6 2.9 -1.6 5 -3.4 4.6 -4 -0.3 -0.6 -1.3 -0.8 -2.2 -0.4 -2.5 0.9 -1.4 0.1 9.4 -7.3 6.2 -4.4 9.8 -7.4 9.6 -8.4 -0.1 -0.9 1.9 -3.2 4.7 -5.4 5.1 -3.8 6.1 -6.9 1.3 -3.8 -13.1 8.6 -31.9 19.1 -32.7 18.2 -0.2 -0.2 4.2 -3 9.8 -6.3 27.2 -16.1 50.4 -38.1 78.3 -74.5 12.6 -16.4 17.6 -24.3 26.8 -42 15.9 -30.9 23.8 -56 30 -96 5.9 -37.3 1.4 -87.7 -11 -125.4 -13.4 -40.8 -35.3 -79.4 -60.8 -107.6 -17.7 -19.5 -35.4 -32.2 -66.6 -47.7 -50 -24.8 -72.9 -30.7 -119 -30.7 -15.5 0.1 -24.3 0.5 -31.5 1.8 -44.9 7.6 -93.9 30.3 -129 59.9 -17.1 14.5 -37.5 37 -57 63.2 -9.1 12.2 -10.9 15.1 -10 16.5 0.3 0.5 -1 4.6 -2.9 9.2 -1.9 4.6 -5.9 14.4 -9 21.8 l-5.5 13.5 0.3 -6 c0.4 -6.3 3.3 -15.5 9.7 -31.3 2.1 -5.1 3.6 -9.9 3.3 -10.6 -0.3 -0.7 0.5 -3.4 1.6 -6.1 3.6 -8.5 0.6 -7.3 -4.2 1.7 -12.2 22.6 -26.3 67.3 -30.2 95.3 -2.5 18.3 -2.7 21.3 -1.7 21.9 1 0.7 1.3 0 3.1 -8.2 0.7 -2.9 1.4 -5.2 1.5 -5 0.2 0.2 0.6 10.4 0.9 22.8 0.6 23.8 0.9 28.9 2.7 43.8 0.7 5.1 1 9.5 0.7 9.7 -0.3 0.3 -1.5 -4.1 -2.8 -9.7 -1.2 -5.7 -2.6 -11 -3.1 -11.8 -3.5 -6.6 -0.6 21.5 3.6 34.6 1.4 4.3 3.2 10.5 4 13.6 2.2 8.2 10.2 29.1 14.2 37.2 4.9 9.8 15.6 25.7 16.6 24.7 0.5 -0.5 0.4 -1.9 -0.3 -3.1 -0.6 -1.2 -1 -2.4 -0.7 -2.6 0.2 -0.2 2.6 3.5 5.3 8.2 2.7 4.7 7.2 11.7 9.9 15.6 2.8 3.8 6.5 9.3 8.4 12.2 l3.4 5.1 -6.6 -6.3 c-6.7 -6.3 -10.5 -7.6 -7.1 -2.4 2.6 4 15.6 20 20.8 25.6 2.5 2.7 4.6 5.2 4.6 5.6 0 1.2 11.8 10.4 22 17.3 13 8.6 14.5 10.1 5.5 5.2 -8.3 -4.6 -15.6 -9.4 -28.5 -18.9 -13.5 -9.8 -20.9 -16.6 -29.2 -26.3 -7.2 -8.5 -10.3 -10.8 -12.4 -9.2 -1.2 1 -12.3 -16.6 -16.9 -26.8 -3.2 -7.2 -5.1 -9.4 -6.1 -6.9 -0.4 1 2.1 6.7 6.6 14.9 18.7 34 40.8 62 62 78.2 12 9.2 49.5 28.3 52.9 27 1.3 -0.5 1.2 -1 -0.9 -2.7 -2 -1.7 -2.1 -2 -0.5 -1.3 1.1 0.4 3 1 4.2 1.2 1.3 0.3 2 0.9 1.7 1.4 -0.3 0.5 0 0.9 0.7 0.9 0.9 0 0.9 0.3 0 1.4 -1 1.2 -0.1 1.8 5.1 3.4 7.9 2.6 20.1 5.8 25.1 6.7 4.7 0.8 6.8 -0.3 3.7 -2 -4.8 -2.6 -0.1 -2.1 6.9 0.7 4.4 1.7 8.4 2.7 9.7 2.4 1.3 -0.4 5.8 0.6 10.3 2.3 7.6 2.6 8.1 2.7 8.1 0.9 0 -7 42.9 26.8 44.6 35.1 0.2 1.4 0.9 4 1.4 5.7 2.4 7.5 0.6 15.4 -4.9 22.1 -1.6 1.9 -2.7 4.1 -2.4 4.8 0.7 2 -2 6.6 -7 11.9 -3.6 3.8 -5.7 5.1 -11.3 6.7 -12.6 3.8 -14.8 4.1 -24.3 3.6 -6.1 -0.4 -11.7 0 -16 0.9 -3.6 0.7 -11 1.4 -16.5 1.4 -12.2 0 -21.9 -3 -41.1 -12.6 -29.6 -14.9 -44.6 -25.1 -83.6 -57.1 -52.3 -42.7 -74.6 -71.9 -103.3 -135.3 -15.5 -34.3 -27.3 -78.5 -29.1 -109.5 -0.3 -5.5 -0.8 -11.7 -1 -13.7 -0.3 -2.1 -0.1 -3.8 0.3 -3.8 0.5 0 0.9 2.1 1.1 4.7 0.1 2.6 0.4 4.9 0.5 5.2 0.2 0.3 0.7 3.3 1.1 6.6 0.8 6.9 1.3 9.7 5.4 29.3 3.2 15.1 7.7 31.1 9.2 32.6 1.9 2 1.8 -2.3 -0.1 -10.9 -7 -31.3 -9.6 -47.9 -11.1 -71.6 -1 -17.3 -0.6 -36.7 1.2 -54.9 3.4 -34.4 14 -73.4 29.2 -108.2 5.7 -13 17.1 -34.8 18.2 -34.8 0.6 0 -0.6 3.3 -1.8 4.8 -0.5 0.6 -0.6 1.2 -0.1 1.2 0.5 0 0.1 0.5 -0.9 1.1 -0.9 0.6 -1.5 1.4 -1.2 2 0.4 0.5 0.3 1.5 -0.2 2.2 -0.4 0.6 -0.8 1.7 -0.9 2.2 -0.1 0.6 -2.1 6.6 -4.3 13.5 -6.5 19.5 -8.2 28.4 -5 26.5 0.5 -0.3 0.6 0.1 0.3 0.9 -0.3 0.9 -0.3 2.4 0.1 3.4 0.4 1.2 3.4 -3.9 10.1 -17.7 5.3 -10.6 9.8 -19.1 10 -18.8 0.3 0.3 -0.2 2.2 -1.2 4.3 -3.4 8 -15.6 45.4 -18.9 57.9 -3.7 14.7 -7 34.6 -6.1 37.1 1 2.7 3.3 -0.1 4.6 -5.9 2 -8.1 8.9 -32.6 11.1 -39.2 3.2 -9.3 8.2 -21.6 8.6 -21.2 0.2 0.3 -0.6 3.9 -1.7 8.1 -1.2 4.2 -1.8 8.1 -1.4 8.7 0.4 0.7 2.4 -2.3 4.7 -7 2.1 -4.5 4.1 -8 4.3 -7.8 0.3 0.2 -1.1 4.2 -2.9 8.9 -4 9.7 -6.2 18.7 -4.9 20 0.9 0.9 2.7 -2.7 10.7 -21.9 6.5 -15.7 19.3 -41.4 25.1 -50.6 29.1 -46.4 47.1 -67.5 78.7 -92.3 27 -21.3 59.6 -36.6 115.1 -53.9 10.3 -3.3 14.5 -5 13.8 -5.7 -0.7 -0.7 -3.4 -0.7 -8.8 0.1 -4.2 0.6 -7.9 0.9 -8.1 0.7 -0.7 -0.7 16.5 -4.4 33.2 -7.2 25.9 -4.3 58.6 -4.2 87.5 0.2 29.4 4.4 57.7 12.4 90.6 25.8 31.7 12.7 58.8 28.3 82.7 47.6 4.9 3.8 9.3 6.8 9.8 6.4 0.6 -0.4 0.3 -1.4 -0.7 -2.5 -2.8 -3.1 -1.1 -3.1 5.4 0.2 14.1 7 46 48.5 62.1 80.7 3.9 7.9 15.4 35.6 17.6 42.7 0.7 2.2 2.9 9.2 4.9 15.5 7.2 22.5 11 39.3 15 67 3.2 21.4 4 34.3 3.9 57 -0.3 29.8 -2.5 46.5 -12.4 92.5 -7.3 33.8 -27.6 82.1 -45.8 109 -12.4 18.4 -25.5 33.6 -35.3 41.1 -3.2 2.5 -8.6 8.2 -12 12.6 -7.5 9.9 -19 21.5 -29.5 29.9 -29.1 23.3 -80.2 48.1 -119.3 58 -15.6 3.9 -15.9 3.6 -1 -1.2z"/>
  <path d="M684 914.4 c0.8 -0.4 5.8 -2.2 11 -4.1 9.8 -3.7 26 -11.4 33.1 -15.9 4.7 -2.9 6.5 -2.6 2.2 0.4 -7.1 5 -37 18.1 -44.8 19.6 -1.6 0.4 -2.3 0.3 -1.5 0z"/>
  <path d="M460.7 858 c-6.3 -3.3 -13.7 -7.8 -13.7 -8.4 0 -0.4 18.8 9.9 19.7 10.8 1.1 1.1 -0.2 0.6 -6 -2.4z"/>
  <path d="M594 810.3 c-1.9 -0.2 -4.4 -0.8 -5.5 -1.3 -1.1 -0.4 -4.1 -1.1 -6.7 -1.4 -6.3 -0.7 -25.9 -7.1 -33.3 -10.9 -12.5 -6.3 -28 -18.1 -36.1 -27.7 -14.7 -17.2 -27.4 -46.4 -29.4 -67.2 -1.1 -11.2 -1.2 -29.8 -0.1 -35.3 0.4 -2.4 0.6 1.6 0.5 10 -0.3 11.5 0.1 16 2 25 2.2 10.7 5.7 22.6 7.5 25.4 1.9 2.9 1.9 -0.9 0.1 -7 -5.6 -18.7 -7.5 -42.7 -4.5 -57.1 1.9 -8.9 7.8 -27 11.7 -35.7 8.5 -19 25.3 -37.7 43.8 -48.8 7.6 -4.6 17.8 -8.9 16.1 -7 -0.6 0.8 -0.8 1.6 -0.5 1.9 0.3 0.3 -3 2.4 -7.4 4.6 -4.4 2.3 -8.2 3.9 -8.5 3.6 -1 -1 -22 20.3 -21.3 21.5 0.5 0.8 2.2 -0.2 5.2 -2.8 5.6 -4.9 20.4 -15.1 26.3 -18.1 6.3 -3.1 26.6 -7 37 -7 10.6 0 14.7 1.7 23.6 9.6 5.2 4.6 6.5 6.3 6.5 8.7 0 1.6 1.1 4.2 2.5 5.9 3.7 4.3 3.3 7 -0.4 3.4 -2.1 -2 -3.5 -2.6 -5 -2.1 -1.2 0.4 -3.2 -0.1 -5 -1.1 -1.7 -1 -3.6 -1.4 -4.7 -1 -1.5 0.6 -1.1 1.2 2.7 3.9 4.5 3.3 5.3 5.6 3.4 10.1 -0.5 1.1 -0.3 2.7 0.5 4 1.2 2 1.2 2 -0.6 0.5 -2.1 -1.8 -14.4 -3.4 -14.4 -1.9 0 0.5 -1.5 1 -3.2 1.2 -2.1 0.2 -3.2 0.8 -3 1.6 0.2 0.9 -0.3 1 -1.6 0.3 -1.2 -0.6 -3.4 -0.4 -7.2 1 -8.7 3 -15.7 7.9 -23.8 16.4 -4.3 4.4 -8 7.9 -8.4 7.8 -1.1 -0.4 -5 5.6 -4.3 6.7 0.3 0.5 -0.3 2.6 -1.3 4.7 -1.1 2.1 -2.7 6.3 -3.6 9.3 -2.2 7 -4.5 25.2 -3.5 26.6 0.5 0.6 0.5 1.5 0 2 -0.5 0.5 -1.1 2.9 -1.4 5.4 -0.6 5.8 5.4 25.3 8.7 28.4 1.3 1.1 3.9 4.6 5.8 7.6 2 3 5.6 7.5 8.1 9.9 2.6 2.4 4.4 4.8 4.2 5.2 -0.7 1.1 10.1 8 16.6 10.6 11.1 4.5 17.7 5.7 31.4 5.7 16 0 26.6 -2.4 40.5 -9.2 5.2 -2.5 9.9 -4.6 10.3 -4.7 0.4 0 1.1 -0.6 1.5 -1.3 0.5 -0.6 2.4 -2.3 4.3 -3.7 6 -4.4 20 -18.7 25.5 -26 5.8 -7.7 10.4 -16.5 15.9 -30 13.4 -33.3 15.2 -78.5 4.5 -114.6 -6.1 -20.6 -20.3 -41.1 -37.5 -54.1 -10.3 -7.8 -27.3 -16.1 -40 -19.5 -8.9 -2.3 -11.9 -2.6 -27.5 -2.7 -18.9 -0.1 -28 1.2 -42.7 6 -11 3.6 -26.6 11.5 -34.8 17.6 -9.1 6.8 -22.3 20.1 -30.5 30.7 -3.6 4.6 -7.4 9.5 -8.5 10.8 -2.2 2.7 -7.7 4.3 -11.5 3.3 -2.1 -0.5 -2.5 -1.1 -2.2 -3.7 0.4 -4 -1.2 -5 -3.3 -2.1 l-1.7 2.3 0.5 -2.2 c0.8 -3.5 -0.8 -3.6 -5.5 -0.4 -4.2 2.9 -4.3 2.9 -4.6 0.8 -0.2 -1.1 0.2 -4.7 0.9 -7.9 1.6 -7.7 0.3 -9.2 -3.9 -4.4 -3 3.4 -5.2 4.6 -5.2 2.8 0 -0.5 1.5 -3.4 3.4 -6.5 1.9 -3.2 3.7 -6.6 4.1 -7.6 1 -3.1 -1.2 -3.3 -3.5 -0.4 l-2.2 2.8 2.2 -3.8 c1.3 -2.1 3.2 -5.7 4.3 -8 5.3 -11.2 13.8 -20.5 31.3 -34.7 16.4 -13.2 22.8 -17.4 35.8 -23.5 25.3 -11.9 49 -16.9 81.1 -16.9 38.6 0.1 74.8 12.7 104 36.5 7.4 6 23.5 21.8 23.5 23 0 0.4 0.6 1.4 1.4 2.1 2.4 2.5 10.4 15.4 14.4 23.5 9.8 19.5 15.1 38.5 18.7 67.3 2.2 17.9 -0.7 52.3 -6.1 73 -5.4 20.6 -13 40.2 -15.9 41.4 -0.9 0.3 -1.3 1.1 -1 1.7 2.1 3.2 -16 29.4 -30 43.5 -14.8 14.9 -41.6 31.3 -61.1 37.3 -13.6 4.2 -33.7 6.9 -50.9 6.9 -7.7 -0.1 -15.6 -0.3 -17.5 -0.5z"/>
  <path d="M332.1 499.5 c0 -0.5 0.6 -2.1 1.4 -3.5 0.8 -1.4 1.4 -2 1.4 -1.5 0 0.6 -0.6 2.1 -1.4 3.5 -0.8 1.4 -1.4 2.1 -1.4 1.5z"/>
  <path d="M339 484.6 c0 -1 7 -14.6 7.5 -14.6 0.3 0 -1.1 3.3 -3.1 7.3 -3.8 7.4 -4.4 8.5 -4.4 7.3z"/>
  <path d="M347 468.6 c0 -1.2 12.3 -23.3 14.3 -25.8 l1.9 -2.3 -1.4 2.5 c-0.8 1.4 -4.3 7.7 -7.8 14 -6.6 12.1 -7 12.7 -7 11.6z"/>
  <path d="M358 412.3 c0 -1.3 7.2 -10.7 9.2 -11.9 1.1 -0.7 -4.7 7.3 -6.3 8.6 -0.3 0.3 -1.1 1.4 -1.7 2.5 -0.6 1.1 -1.2 1.5 -1.2 0.8z"/>
  <path d="M368.8 397.3 c0.6 -0.2 1 -0.9 0.6 -1.4 -0.3 -0.5 0.2 -0.9 1.2 -0.9 1.3 0 1.4 0.3 0.4 1.5 -0.7 0.8 -1.8 1.5 -2.4 1.4 -0.7 0 -0.6 -0.2 0.2 -0.6z"/>
  <path d="M393 393.5 c1.9 -1.9 3.6 -3.5 3.9 -3.5 0.3 0 -1 1.6 -2.9 3.5 -1.9 1.9 -3.6 3.5 -3.9 3.5 -0.3 0 1 -1.6 2.9 -3.5z"/>
  <path d="M372.6 393 c0.5 -0.8 0.9 -1.8 0.9 -2.1 0.1 -3.4 30.1 -33.3 47 -46.8 12.7 -10.2 26.1 -19.4 37.8 -26 9.4 -5.4 7.5 -2.9 -2.7 3.4 -26.2 16.1 -56.9 42.4 -79 67.5 -2.6 3 -4.4 4.8 -4 4z"/>
  <path d="M372 381.3 c0 -2.7 3.8 -6.9 5 -5.6 0.5 0.4 -0.4 2.4 -2 4.3 -2.7 3.2 -2.9 3.3 -3 1.3z"/>
  <path d="M626.3 284.3 c2.6 -0.2 6.8 -0.2 9.5 0 2.6 0.2 0.4 0.3 -4.8 0.3 -5.2 0 -7.4 -0.1 -4.7 -0.3z"/>
  <path d="M578.5 277 c1.7 -0.4 4.6 -0.8 6.5 -0.8 l3.5 0 -4 0.9 c-2.2 0.4 -5.1 0.8 -6.5 0.7 -2.3 0 -2.2 -0.1 0.5 -0.8z"/>
  <path d="M628.5 274 l-7 -0.5 4.5 -0.9 c9.3 -2 36.4 -0.7 32.9 1.5 -1.4 0.9 -17.8 0.9 -30.4 -0.1z"/>
 </g>
</svg>